# xmcd
#
# Track frame offsets:
#	150
#	15883
#	29551
#	47002
#	65384
#	80408
#	96029
#	116317
#	133727
#	144866
#	160007
#	176026
#	189561
#	208223
#
# Disc length: 2925 seconds
#
# Revision: 1
# Processed by: cddbd v1.5.2PL0 Copyright (c) Steve Scherf et al.
# Submitted via: audiograbber 1.83.01
#
DISCID=b40b6b0e
DTITLE=Michelle - Zwischenspiel
DYEAR=2007
DGENRE=Schlager
TTITLE0=Vergiss Meinen Namen
TTITLE1=Wer Liebe Lebt
TTITLE2=Vielleicht Nur Einmal Im Leben
TTITLE3=Willst Du Mich Für Immer
TTITLE4=Hast Du Lust
TTITLE5=In Einem Bett Aus Rosen
TTITLE6=Das Lachen Eines Kindes
TTITLE7=Friede Der Welt
TTITLE8=Wirst Du Noch Da Sein
TTITLE9=Gute Zeit
TTITLE10=Ich Hatte Nie Den Mut
TTITLE11=As Time Goes By
TTITLE12=To Live For Love
TTITLE13=Ave Maria
EXTD=
EXTT0=
EXTT1=
EXTT2=
EXTT3=
EXTT4=
EXTT5=
EXTT6=
EXTT7=
EXTT8=
EXTT9=
EXTT10=
EXTT11=
EXTT12=
EXTT13=
PLAYORDER=
